# xmcd
#
# Track frame offsets:
#	150
#	10716
#	21680
#	35708
#	46873
#	60466
#	71483
#	80885
#	91902
#	102953
#	116388
#	128544
#	140097
#	152058
#	163798
#	179184
#	190256
#	201080
#	212196
#	223502
#	233448
#	244921
#	256874
#	269168
#	280805
#	292621
#	303310
#	315162
#	326302
#	340633
#
# Disc length: 4719 seconds
#
# Revision: 0
# Processed by: cddbd v1.5.2PL0 Copyright (c) Steve Scherf et al.
# Submitted via: EasyCDDAExtractor 15.3.0.1
#
DISCID=af126d1e
DTITLE=Wills Bob - Faded Love Cd 3
DYEAR=1900
DGENRE=
TTITLE0=Twinkle Star (1952)
TTITLE1=Brown Skin Gal (1952)
TTITLE2=Sittin' On Top Of The World (1953)
TTITLE3=Silver Bell (1952)
TTITLE4=Last Goodbye (1952)
TTITLE5=Just To Be Loved (1985)
TTITLE6=Send Me A Red Rose (1952)
TTITLE7=Hubbin' It (1952)
TTITLE8=I Can't Stand This Loneliness (1952)
TTITLE9=Todel Mountain (1951)
TTITLE10=Three Miles South Of Cash (1951)
TTITLE11=Fiddlin' Man (1951)
TTITLE12=Ida Red (1951)
TTITLE13=Deep Water (1951)
TTITLE14=Sittin' On Top Of The World (1951)
TTITLE15=Blue Prelude (1951)
TTITLE16=You Always Keep Me In Hot Water (1952)
TTITLE17=Cause I'm In Love (1952)
TTITLE18=Three Miles South Of Cash In Arkansas (1952)
TTITLE19=I'm All Alone (1952)
TTITLE20=Three Little Kittens (1985)
TTITLE21=I Won't Be Back Tonight (1953)
TTITLE22=Charlie Changed His Mind (1985)
TTITLE23=I'm Only A Friend (Why Do You Call Me Your Sweetheart) (1985)
TTITLE24=Steamboat Stomp (1952)
TTITLE25=I Want To Be Wanted (1952)
TTITLE26=Snatchin' And Grabbin' (1952)
TTITLE27=Red Hot Needle And A Burning Thread (1952)
TTITLE28=Trouble Trouble Blues (1985)
TTITLE29=Trouble Trouble Blues (1953)
EXTD=
EXTT0=
EXTT1=
EXTT2=
EXTT3=
EXTT4=
EXTT5=
EXTT6=
EXTT7=
EXTT8=
EXTT9=
EXTT10=
EXTT11=
EXTT12=
EXTT13=
EXTT14=
EXTT15=
EXTT16=
EXTT17=
EXTT18=
EXTT19=
EXTT20=
EXTT21=
EXTT22=
EXTT23=
EXTT24=
EXTT25=
EXTT26=
EXTT27=
EXTT28=
EXTT29=
PLAYORDER=
